<svg xmlns="http://www.w3.org/2000/svg" x="0px" y="0px"
width="30" height="30"
viewBox="0 0 172 172"
style=" fill:#000000;"><g fill="none" fill-rule="nonzero" stroke="none" stroke-width="1" stroke-linecap="butt" stroke-linejoin="miter" stroke-miterlimit="10" stroke-dasharray="" stroke-dashoffset="0" font-family="none" font-weight="none" font-size="none" text-anchor="none" style="mix-blend-mode: normal"><path d="M0,172v-172h172v172z" fill="none"></path><g id="original-icon" fill="#6bd6f7"><path d="M78.79974,17.2c-39.35448,0 -66.38125,42.69766 -66.38125,42.69766c-1.13251,1.70827 -1.26755,3.89099 -0.35423,5.72583c0.91332,1.83484 2.7362,3.04298 4.78189,3.16926c2.04568,0.12628 4.00332,-0.84849 5.13537,-2.55707c0,0 26.2375,-37.56901 56.81823,-37.56901c6.04697,0 10.92221,1.93095 14.14297,4.41198c3.22075,2.48103 4.52396,5.41615 4.52396,7.05469c0,2.49614 -0.71911,3.4803 -1.74688,4.34479c-1.02776,0.86449 -2.67828,1.38854 -3.98646,1.38854c-5.29651,0 -6.55078,-2.94505 -6.55078,-2.94505c-0.90778,-1.51404 -2.46237,-2.52552 -4.21437,-2.74206c-1.752,-0.21654 -3.50607,0.38601 -4.75516,1.63347c0,0 -1.04917,1.04285 -2.7099,2.15c-1.66072,1.10715 -3.74756,1.90365 -4.70312,1.90365c-0.63326,0 -1.82633,-0.31563 -3.10183,-0.97422c-2.81392,-1.45334 -6.27322,-0.35038 -7.72656,2.46354c-1.45334,2.81392 -0.35038,6.27322 2.46354,7.72656c2.23331,1.15314 5.0077,2.25078 8.36484,2.25078v5.73333c0,22.09818 18.03515,40.13333 40.13333,40.13333h22.93333h22.93333v-57.33333v-11.46667c-0.88716,0 -1.70234,0.23326 -2.45234,0.59349l-0.21276,0.05599l-28.26354,11.2763l-0.0112,0.0224c-2.02979,0.88292 -3.46016,2.89832 -3.46016,5.25182v40.13333h-11.46667c-15.90235,0 -28.66667,-12.76431 -28.66667,-28.66667v-9.675c2.72916,1.98353 6.44287,3.94167 11.46667,3.94167c3.86903,0 7.95462,-1.2067 11.36589,-4.07604c3.41126,-2.86934 5.83411,-7.6221 5.83411,-13.12396c0,-6.35946 -3.64422,-12.01672 -8.99192,-16.1362c-5.34772,-4.11947 -12.67184,-6.79714 -21.14167,-6.79714zM131.86667,57.33333h11.46667v11.46667h-11.46667zM131.86667,80.26667h11.46667v11.46667h-11.46667zM16.99844,114.63308c-2.64872,0.06059 -4.91105,1.92799 -5.47254,4.51722c-0.56149,2.58924 0.72408,5.22602 3.10978,6.37834c0,0 12.11988,6.33802 25.49766,6.33802c11.16033,0 19.83048,-3.82297 22.93333,-5.28542c3.10286,1.46245 11.773,5.28542 22.93333,5.28542c11.16033,0 19.83048,-3.82297 22.93333,-5.28542c3.10286,1.46245 11.773,5.28542 22.93333,5.28542c13.37778,0 25.49766,-6.33802 25.49766,-6.33802c1.83265,-0.91594 3.03736,-2.7401 3.16022,-4.7852c0.12287,-2.04511 -0.85477,-4.00038 -2.56458,-5.12915c-1.70981,-1.12877 -3.89196,-1.2595 -5.7243,-0.34294c0,0 -10.81345,5.12864 -20.36901,5.12864c-9.55556,0 -20.36901,-5.12864 -20.36901,-5.12864c-1.61428,-0.80716 -3.51437,-0.80716 -5.12865,0c0,0 -10.81345,5.12864 -20.36901,5.12864c-9.55556,0 -20.36901,-5.12864 -20.36901,-5.12864c-1.61428,-0.80716 -3.51437,-0.80716 -5.12865,0c0,0 -10.81345,5.12864 -20.36901,5.12864c-9.55556,0 -20.36901,-5.12864 -20.36901,-5.12864c-0.85389,-0.44121 -1.805,-0.6607 -2.76588,-0.63828zM16.99844,137.56641c-2.64872,0.06059 -4.91105,1.92799 -5.47254,4.51722c-0.56149,2.58924 0.72408,5.22602 3.10978,6.37834c0,0 12.11988,6.33802 25.49766,6.33802c11.16033,0 19.83048,-3.82297 22.93333,-5.28542c3.10286,1.46245 11.773,5.28542 22.93333,5.28542c11.16033,0 19.83048,-3.82297 22.93333,-5.28542c3.10286,1.46245 11.773,5.28542 22.93333,5.28542c13.37778,0 25.49766,-6.33802 25.49766,-6.33802c1.83265,-0.91594 3.03736,-2.7401 3.16022,-4.7852c0.12287,-2.04511 -0.85477,-4.00038 -2.56458,-5.12915c-1.70981,-1.12877 -3.89196,-1.2595 -5.7243,-0.34294c0,0 -10.81345,5.12864 -20.36901,5.12864c-9.55556,0 -20.36901,-5.12864 -20.36901,-5.12864c-1.61428,-0.80716 -3.51437,-0.80716 -5.12865,0c0,0 -10.81345,5.12864 -20.36901,5.12864c-9.55556,0 -20.36901,-5.12864 -20.36901,-5.12864c-1.61428,-0.80716 -3.51437,-0.80716 -5.12865,0c0,0 -10.81345,5.12864 -20.36901,5.12864c-9.55556,0 -20.36901,-5.12864 -20.36901,-5.12864c-0.85389,-0.44121 -1.805,-0.6607 -2.76588,-0.63828z"></path></g></g></svg>